<svg xmlns="http://www.w3.org/2000/svg" xmlns:xlink="http://www.w3.org/1999/xlink" width="224.484" height="57.716" viewBox="0 0 224.484 57.716">
  <defs>
    <clipPath id="clip-path">
      <rect id="Rectangle_7181" data-name="Rectangle 7181" width="224.484" height="57.716" transform="translate(0 0)" fill="none"/>
    </clipPath>
  </defs>
  <g id="Group_21531" data-name="Group 21531" clip-path="url(#clip-path)">
    <path id="Path_7265" data-name="Path 7265" d="M16.932,19.768,13.8,29.952c4.079.658,7.37.257,9.547-3.45,1.421-2.422,1.714-5.319-1.386-6.232a13.285,13.285,0,0,0-5.029-.5M19.925,8.75q-1.134,3.987-2.269,7.974a13.652,13.652,0,0,0,6.24-.37c3.384-1.278,5.126-5.586.748-7.31a10.05,10.05,0,0,0-4.718-.294M8.3,3.336C5.534,13.937,2.767,24.7,0,35.3q11.5.086,23,.012c3.507-.021,6.2.267,9.273-2.2,4.7-3.762,6.89-11.59,1.5-14.41C39.482,16.48,43.34,7.6,39.792,4.3c-1.482-1.384-3.3-1.145-5.154-1.135Q21.47,3.25,8.3,3.336" transform="translate(0 -1.683)" fill="#eb1c24" fill-rule="evenodd"/>
    <path id="Path_7266" data-name="Path 7266" d="M85.382,35.421c5.272.064,10.545.132,15.814.1,3.507-.021,6.2.267,9.273-2.2,4.7-3.763,6.891-11.59,1.5-14.41,6.088-1.162,9.559-11.1,6.011-14.409-1.482-1.384-3.3-1.145-5.154-1.136L93.488,3.5q-.631,2.609-1.258,5.217l12.161.242c5.474.086,5.482,7.371-.482,7.443l-11.39.1q-.773,2.852-1.544,5.7c2.692-.013,5.386.038,8.077.048a9.317,9.317,0,0,1,3.424.51c1.915.809,3.132,2.532,1.752,4.572-1.826,2.708-4.721,2.552-7.657,2.618l-9.8.227Z" transform="translate(-45.763 -1.794)" fill="#eb1c24" fill-rule="evenodd"/>
    <path id="Path_7267" data-name="Path 7267" d="M183.545,34.729l-.761-8.041H174.8l-3.206,8.041h-4.836l13.529-33.09H191.37l3.477,33.09Zm-7.118-12.117H182.4L181.263,10.55Z" transform="translate(-89.378 -0.878)" fill="#282626"/>
    <path id="Path_7268" data-name="Path 7268" d="M236.036,23.047l2.988-21.408H250.38l-3.205,22.712c-.6,4.4.815,6.3,3.966,6.3,2.988,0,4.564-2.663,5.107-6.3l3.205-22.712h4.564l-3.151,22.549c-.978,6.738-4.945,11.356-13.095,11.356-8.313,0-12.715-5.379-11.736-12.5" transform="translate(-126.438 -0.878)" fill="#282626"/>
    <path id="Path_7269" data-name="Path 7269" d="M326.91,6.2h-6.9l-4.021,28.526h-11.41L308.6,6.2h-6.955l.706-4.564h25.211Z" transform="translate(-161.675 -0.878)" fill="#282626"/>
    <path id="Path_7270" data-name="Path 7270" d="M353.749,20.213C353.749,8.693,361.356,0,371.571,0c8.2,0,13.094,5.27,13.094,14.4,0,11.519-7.552,20.213-17.767,20.213-8.2,0-13.149-5.27-13.149-14.4M373.092,9.4c0-3.749-.706-4.781-1.956-4.781-3.369,0-5.759,13.529-5.759,20.593,0,3.749.707,4.836,1.956,4.836,3.369,0,5.759-13.584,5.759-20.648" transform="translate(-189.602 0)" fill="#282626"/>
    <path id="Path_7271" data-name="Path 7271" d="M423.745,23.636h9.781c-.652,4.129.543,6.411,3.205,6.411a3.015,3.015,0,0,0,3.315-3.26c0-6.738-13.964-5-13.964-15.865C426.081,4.238,431.461,0,439.774,0c7.878,0,12.442,4.075,11.682,10.432H442.11c.435-3.858-.489-5.814-2.825-5.814a2.913,2.913,0,0,0-3.206,3.1c0,6.412,14.019,4.619,14.019,15.7,0,6.9-5.542,11.248-13.964,11.248-8.313,0-13.366-4.456-12.388-11.03" transform="translate(-227.054 0)" fill="#282626"/>
    <text id="AUTOMOTIVE_SOLUTIONS" data-name="AUTOMOTIVE SOLUTIONS" transform="translate(53.11 54.131)" fill="#282626" font-size="9" font-family="SegoeUI, Segoe UI"><tspan x="0" y="0" letter-spacing="-0.027em">A</tspan><tspan y="0">U</tspan><tspan y="0" letter-spacing="-0.027em">T</tspan><tspan y="0">OM</tspan><tspan y="0" letter-spacing="-0.024em">O</tspan><tspan y="0">TIVE SO</tspan><tspan y="0" letter-spacing="-0.035em">L</tspan><tspan y="0">UTIONS</tspan></text>
    <path id="Path_7272" data-name="Path 7272" d="M422.605,112.238c-3.57.108-7.139.165-10.708.25l-10.707.157c-3.569.04-7.139.24-10.706.064-1.783-.084-3.566-.18-5.349-.336s-3.565-.335-5.346-.621l0-.186c1.787-.245,3.573-.39,5.359-.5s3.57-.17,5.355-.214c3.57-.1,7.135.186,10.7.307l10.7.4c3.566.166,7.133.3,10.7.493Z" transform="translate(-203.559 -59.404)" fill="#111010"/>
    <path id="Path_7273" data-name="Path 7273" d="M12.121,112.052c3.566-.189,7.133-.327,10.7-.493l10.7-.4c3.567-.121,7.132-.4,10.7-.307,1.785.044,3.57.1,5.355.214s3.572.253,5.359.5l0,.186c-1.781.286-3.563.471-5.346.621s-3.566.252-5.349.336c-3.566.177-7.137-.024-10.706-.064l-10.707-.157c-3.57-.084-7.139-.142-10.708-.25Z" transform="translate(-6.497 -59.404)" fill="#111010"/>
  </g>
</svg>
