<svg xmlns="http://www.w3.org/2000/svg" xmlns:xlink="http://www.w3.org/1999/xlink" width="181" height="38.238" viewBox="0 0 181 38.238">
  <defs>
    <clipPath id="clip-path">
      <rect id="Rectangle_135" data-name="Rectangle 135" width="181" height="38.238" fill="none"/>
    </clipPath>
  </defs>
  <g id="Group_487" data-name="Group 487" clip-path="url(#clip-path)">
    <path id="Path_218" data-name="Path 218" d="M17.466,17.153,14.236,27.659c4.208.679,7.6.265,9.849-3.56,1.466-2.5,1.768-5.486-1.43-6.429a13.7,13.7,0,0,0-5.188-.517M20.553,5.787q-1.169,4.112-2.34,8.225a14.089,14.089,0,0,0,6.436-.382c3.491-1.319,5.287-5.762.771-7.54a10.36,10.36,0,0,0-4.867-.3M8.562.2C5.708,11.138,2.855,22.24,0,33.176q11.863.088,23.73.012c3.617-.022,6.391.275,9.565-2.266,4.848-3.881,7.108-11.956,1.552-14.864,5.881-2.295,9.861-11.451,6.2-14.863C39.519-.235,37.64.012,35.731.022Q22.147.114,8.562.2" transform="translate(0 0)" fill="#eb1c24" fill-rule="evenodd"/>
    <path id="Path_219" data-name="Path 219" d="M95.8,33.319c5.438.066,10.877.137,16.313.1,3.617-.022,6.39.275,9.564-2.267,4.848-3.881,7.108-11.956,1.552-14.864,6.28-1.2,9.861-11.451,6.2-14.863C127.9,0,126.021.245,124.111.255L104.158.389q-.65,2.691-1.3,5.382,6.271.123,12.544.249c5.647.088,5.656,7.6-.5,7.678l-11.749.1q-.8,2.941-1.593,5.882c2.777-.013,5.556.04,8.333.049a9.607,9.607,0,0,1,3.532.527c1.975.834,3.23,2.611,1.807,4.716-1.884,2.794-4.87,2.633-7.9,2.7l-10.1.235Z" transform="translate(-54.928 -0.134)" fill="#eb1c24" fill-rule="evenodd"/>
    <path id="Path_220" data-name="Path 220" d="M201.741,32.679a13.735,13.735,0,0,1-2.93-2.491,13.573,13.573,0,0,1-2.134-3.223,14.577,14.577,0,0,1-1.192-3.812,15.374,15.374,0,0,1-.115-4.25,16.718,16.718,0,0,1,1.023-4.25,18.52,18.52,0,0,1,.825-1.832l-3.081-9.563h-6.051l-16.775,31.31h4.549a4.672,4.672,0,0,0,1.352-.207,5.51,5.51,0,0,0,1.307-.59,6.444,6.444,0,0,0,1.135-.885,4.594,4.594,0,0,0,.836-1.092l1.83-3.474h12.23l1.131,3.474a3.771,3.771,0,0,0,.6,1.169,4.1,4.1,0,0,0,.915.874,3.966,3.966,0,0,0,1.154.547,4.775,4.775,0,0,0,1.343.185h4.527l-.244-.758a13.6,13.6,0,0,1-2.24-1.132M185.824,21.831l3.4-6.555q.218-.436.378-.83t.257-.7q.125-.371.2-.677a3.742,3.742,0,0,0,.037.655c.021.2.053.437.1.7a6.244,6.244,0,0,0,.21.852l1.982,6.555Z" transform="translate(-98.226 -1.869)"/>
    <path id="Path_221" data-name="Path 221" d="M369.936,4.617h-6.05l-6.8,12.7-.625,5.85A13.6,13.6,0,0,1,354.91,28.2a15.32,15.32,0,0,1-2.19,3.106c-.329.361-.633.657-.993.991a40.752,40.752,0,0,1-4.616,3.627h4.549a4.648,4.648,0,0,0,1.352-.208,5.493,5.493,0,0,0,1.308-.59,6.455,6.455,0,0,0,1.135-.885,4.589,4.589,0,0,0,.836-1.092l1.83-3.474h12.23l1.131,3.474a3.791,3.791,0,0,0,.6,1.169A4.125,4.125,0,0,0,373,35.2a3.963,3.963,0,0,0,1.154.546,4.764,4.764,0,0,0,1.343.186h4.527Zm-8.312,18.572,3.4-6.555q.218-.436.378-.83t.257-.7q.125-.371.2-.677a3.7,3.7,0,0,0,.037.655c.021.2.053.437.1.7a6.17,6.17,0,0,0,.209.852l1.982,6.555Z" transform="translate(-199.025 -2.647)"/>
    <path id="Path_222" data-name="Path 222" d="M251.34,32.679a18.626,18.626,0,0,1-4.652.765,14.785,14.785,0,0,1-4.145-.569,13.923,13.923,0,0,1-3.595-1.606,13.724,13.724,0,0,1-2.93-2.491,13.551,13.551,0,0,1-2.134-3.222,14.533,14.533,0,0,1-1.192-3.813,15.374,15.374,0,0,1-.115-4.25,16.715,16.715,0,0,1,1.023-4.25,18.244,18.244,0,0,1,2.006-3.812,18.469,18.469,0,0,1,2.823-3.223,18.758,18.758,0,0,1,3.462-2.491,17.5,17.5,0,0,1,3.948-1.606,16.134,16.134,0,0,1,4.256-.568,14.71,14.71,0,0,1,4.123.568,13.967,13.967,0,0,1,3.594,1.606,13.782,13.782,0,0,1,2.931,2.491,13.379,13.379,0,0,1,2.124,3.223,14.9,14.9,0,0,1,1.18,3.812,15.377,15.377,0,0,1,.115,4.25,16.921,16.921,0,0,1-1.5,5.386,18.611,18.611,0,0,1-3.047,4.621l7.192,11.623h-5.772a5.425,5.425,0,0,1-2.721-.633,4.915,4.915,0,0,1-1.8-1.792l-6.373-10.641a12.369,12.369,0,0,0,2.637-1.595,13.683,13.683,0,0,0,2.145-2.1,11.453,11.453,0,0,0,1.509-2.382,7.8,7.8,0,0,0,.717-2.491,7.992,7.992,0,0,0-.343-3.419,7.829,7.829,0,0,0-1.611-2.8,7.925,7.925,0,0,0-2.587-1.89,7.706,7.706,0,0,0-3.273-.7,8.873,8.873,0,0,0-3.454.7,10.494,10.494,0,0,0-5.21,4.687,9.039,9.039,0,0,0-1.073,3.419,7.931,7.931,0,0,0,.343,3.409,8.061,8.061,0,0,0,1.6,2.8,7.756,7.756,0,0,0,5.87,2.6Z" transform="translate(-133.3 -0.885)"/>
    <path id="Path_223" data-name="Path 223" d="M325.206,3.26l-2,18.7a5.81,5.81,0,0,1-.71,2.228,6.937,6.937,0,0,1-1.473,1.835,7.169,7.169,0,0,1-1.978,1.246,5.748,5.748,0,0,1-2.248.459,5.064,5.064,0,0,1-2.15-.459,5.184,5.184,0,0,1-2.771-3.081,5.1,5.1,0,0,1-.234-2.228l2-18.7H306.6l-.7,6.575c.1.192.205.382.3.58a14.89,14.89,0,0,1,1.181,3.812,15.376,15.376,0,0,1,.114,4.25,16.9,16.9,0,0,1-1.5,5.386A19.1,19.1,0,0,1,304.823,26a11.585,11.585,0,0,0,.847,2.489,11.047,11.047,0,0,0,1.738,2.611,11.163,11.163,0,0,0,5.288,3.321,11.95,11.95,0,0,0,3.341.458,13.115,13.115,0,0,0,5.1-1.016A15.065,15.065,0,0,0,328.679,27a13.627,13.627,0,0,0,1.547-5.036l2-18.7Z" transform="translate(-174.778 -1.869)"/>
  </g>
</svg>
