<?xml version="1.0" encoding="utf-8"?>
<!-- Generator: Adobe Illustrator 27.7.0, SVG Export Plug-In . SVG Version: 6.00 Build 0)  -->
<svg version="1.1" id="Layer_1" xmlns="http://www.w3.org/2000/svg" xmlns:xlink="http://www.w3.org/1999/xlink" x="0px" y="0px"
	 viewBox="0 0 236.6 58.6" style="enable-background:new 0 0 236.6 58.6;" xml:space="preserve">
<style type="text/css">
	.st0{clip-path:url(#SVGID_00000027599197234087055010000012557137740772999341_);}
	.st1{fill:#ED1B2F;}
</style>
<g>
	<defs>
		<rect id="SVGID_1_" width="236.6" height="58.6"/>
	</defs>
	<clipPath id="SVGID_00000162316636888971097500000001111663273931978905_">
		<use xlink:href="#SVGID_1_"  style="overflow:visible;"/>
	</clipPath>
	
		<g id="Group_492" transform="translate(-16 -19)" style="clip-path:url(#SVGID_00000162316636888971097500000001111663273931978905_);">
		<path id="Path_231" class="st1" d="M36.8,28.6v7.7c-5.8-3.5-13.3-1.6-16.8,4.2c-1.8,2.9-2.2,6.5-1.3,9.8c0.4,1.5,1,2.9,1.9,4.1
			c0.4,0.6,1,1.1,1.6,1.5c4.8,4.4,12.2,4.3,16.9-0.2l3.9,3.8v-37L36.8,28.6z M30.4,52.9c-3.3,0-6-2.7-6-6c0-3.3,2.7-6,6-6
			c3.3,0,6,2.7,6,6C36.5,50.2,33.8,52.8,30.4,52.9"/>
		<path id="Path_232" class="st1" d="M58.2,34.3c6.8,0,12.3,5.5,12.3,12.4v12.8h-6.2V46.7c0-3.4-2.7-6.2-6.1-6.3
			c-3.4,0-6.2,2.7-6.3,6.1c0,0.1,0,0.1,0,0.2v12.8h-6.2V28.1L52,22v14C53.9,34.9,56,34.3,58.2,34.3"/>
		<path id="Path_233" class="st1" d="M130.8,34.3c6.8,0,12.3,5.5,12.3,12.4v12.8H137V46.7c0-3.4-2.7-6.2-6.1-6.3
			c-3.4,0-6.2,2.7-6.3,6.1c0,0.1,0,0.1,0,0.2v12.8h-6.2V28.1l6.2-6.2v14C126.5,34.9,128.7,34.3,130.8,34.3"/>
		<path id="Path_234" class="st1" d="M92,36.4v-1.6h6.2v24.7l-3.6-3.6c-4.8,4.8-12.6,4.7-17.4-0.1c-4.8-4.8-4.7-12.6,0.1-17.4
			C81.2,34.4,87.2,33.7,92,36.4 M85.8,53.3c3.4,0,6.2-2.8,6.2-6.2c0-3.4-2.8-6.2-6.2-6.2s-6.2,2.8-6.2,6.2c0,1.6,0.7,3.2,1.8,4.4
			C82.6,52.7,84.2,53.3,85.8,53.3"/>
		<path id="Path_235" class="st1" d="M109.4,48.7c0,3.4,2.7,6.1,6.1,6.2c0,0,0.1,0,0.1,0l-5.1,5.1c-2.1-1-4-2.5-5.2-4.5
			c-1.3-2-2.1-4.4-2-6.8V41h-2.1v-6.2h2.1v-6.2l6.2-6.2v12.3h6.2V41h-6.2V48.7z"/>
		<path id="Path_236" class="st1" d="M167.7,34.8v13.9c0,1.9-0.5,3.7-1.3,5.4c-1.8,3.6-5,5.4-9.5,5.4c-4.5,0-7.6-1.8-9.5-5.4
			c-0.9-1.7-1.3-3.5-1.3-5.4V34.8h6.2v13.9c0,2.3,1.7,4.3,4,4.6l0.1,0c0.2,0,0.4,0,0.5,0s0.3,0,0.5,0l0.1,0c2.3-0.3,4-2.3,4-4.6
			V34.8H167.7z"/>
		<path id="Path_237" class="st1" d="M176.8,40.9l6.2-6.2h7.7l-12.4,12.4l12.4,12.3H183l-6.2-6.2l0,6.6h-6.2V28.6l6.2-6.2
			L176.8,40.9z"/>
		<path id="Path_238" class="st1" d="M207.6,36.4v-1.6h6.2v24.7l-3.6-3.6c-4.8,4.8-12.6,4.7-17.4-0.1c-4.8-4.8-4.7-12.6,0.1-17.4
			C196.7,34.4,202.8,33.7,207.6,36.4 M201.4,53.3c3.4,0,6.2-2.8,6.2-6.2c0-3.4-2.8-6.2-6.2-6.2c-3.4,0-6.2,2.8-6.2,6.2
			c0,1.6,0.7,3.2,1.8,4.4C198.2,52.7,199.8,53.3,201.4,53.3"/>
		<path id="Path_239" class="st1" d="M222.9,22.4v37h-6.2V28.6L222.9,22.4z"/>
		<path id="Path_240" class="st1" d="M244.3,36.4v-1.6h6.2v24.7l-3.6-3.6c-4.8,4.8-12.6,4.7-17.4-0.1s-4.7-12.6,0.1-17.4
			C233.5,34.4,239.5,33.7,244.3,36.4 M238.1,53.3c3.4,0,6.2-2.8,6.2-6.2c0-3.4-2.8-6.2-6.2-6.2c-3.4,0-6.2,2.8-6.2,6.2
			c0,1.6,0.7,3.2,1.8,4.4C234.9,52.7,236.5,53.3,238.1,53.3"/>
		<path id="Path_241" class="st1" d="M188.6,64.1h2.6l2.7,7.1l2.7-7.1h2.6v10.4h-1.9v-7.8l-3.1,7.8h-0.6l-3.1-7.8v7.8h-1.7V64.1z"/>
		<path id="Path_242" class="st1" d="M200.8,70.7v-0.1c-0.1-2,1.4-3.8,3.5-3.9c0.1,0,0.2,0,0.3,0c1.9,0,3.6,1.1,3.6,3.8v0.5h-5.6
			c0.1,1.4,0.8,2.2,2.1,2.2c1.1,0,1.6-0.4,1.7-1.2h1.7c-0.2,1.6-1.5,2.5-3.5,2.5c-2,0.1-3.7-1.4-3.8-3.4
			C200.8,71,200.8,70.9,200.8,70.7 M206.5,69.9c-0.1-1.3-0.8-1.9-1.8-1.9c-1.1,0-1.9,0.8-1.9,1.9H206.5z"/>
		<path id="Path_243" class="st1" d="M210.1,72.3v-4.2h-1v-1.3h1v-1.7h1.8v1.7h1.7v1.3h-1.7v4c0,0.7,0.3,1,0.9,1
			c0.3,0,0.6,0,0.9-0.1v1.4c-0.4,0.1-0.8,0.2-1.2,0.2c-1.1,0.1-2.1-0.6-2.3-1.8C210,72.7,210,72.5,210.1,72.3"/>
		<path id="Path_244" class="st1" d="M214.6,72.4c0-1.8,1.7-2.4,3.9-2.4h0.9v-0.4c0-1-0.3-1.5-1.4-1.5c-0.7-0.1-1.3,0.4-1.4,1.1
			c0,0,0,0.1,0,0.1h-1.7c0.1-1.8,1.6-2.5,3.3-2.5s3,0.7,3,2.8v5h-1.7v-0.9c-0.5,0.7-1.4,1.1-2.3,1.1
			C215.8,74.6,214.6,73.9,214.6,72.4 M219.5,71.8v-0.8h-0.9c-1.3,0-2.2,0.3-2.2,1.2c0,0.6,0.3,1.1,1.2,1.1
			C218.7,73.3,219.5,72.8,219.5,71.8"/>
		<rect id="Rectangle_136" x="223.3" y="63.4" class="st1" width="1.8" height="11.1"/>
		<path id="Path_245" class="st1" d="M233.5,64.1h2.5l3.4,10.4h-2l-0.8-2.6h-4l-0.8,2.6H230L233.5,64.1z M233.1,70.5h3.1l-1.5-4.8
			L233.1,70.5z"/>
		<path id="Path_246" class="st1" d="M240.9,66.9h1.8v1.4c0.4-1,1.4-1.6,2.5-1.5v1.6c-1.5,0-2.5,0.5-2.5,2.1v4h-1.8V66.9z"/>
		<path id="Path_247" class="st1" d="M247,72.3v-4.2h-1v-1.3h1v-1.7h1.8v1.7h1.7v1.3h-1.7v4c0,0.7,0.3,1,0.9,1c0.3,0,0.6,0,0.9-0.1
			v1.4c-0.4,0.1-0.8,0.2-1.2,0.2c-1.1,0.1-2.1-0.6-2.3-1.8C247,72.7,247,72.5,247,72.3"/>
	</g>
</g>
</svg>
