<?xml version="1.0" encoding="utf-8"?>
<!-- Generator: Adobe Illustrator 27.1.0, SVG Export Plug-In . SVG Version: 6.00 Build 0)  -->
<svg version="1.1" id="Layer_1" xmlns="http://www.w3.org/2000/svg" xmlns:xlink="http://www.w3.org/1999/xlink" x="0px" y="0px"
	 viewBox="0 0 266 43.3" style="enable-background:new 0 0 266 43.3;" xml:space="preserve">
<style type="text/css">
	.st0{clip-path:url(#SVGID_00000020376779192069416530000006660308441996978107_);}
	.st1{fill-rule:evenodd;clip-rule:evenodd;fill:#EB1C24;}
	.st2{fill:#202020;}
	.st3{fill:#111111;}
</style>
<g>
	<defs>
		<rect id="SVGID_1_" x="7.3" y="4.2" width="251.6" height="36.1"/>
	</defs>
	<clipPath id="SVGID_00000168796885306997995580000002632118384047516820_">
		<use xlink:href="#SVGID_1_"  style="overflow:visible;"/>
	</clipPath>
	<g id="Group_540" style="clip-path:url(#SVGID_00000168796885306997995580000002632118384047516820_);">
		<path id="Path_249" class="st1" d="M28.8,22.8l-4,11.4c5.2,0.7,9.4,0.3,12.1-3.9c1.8-2.7,2.2-5.9-1.8-7
			C33.1,22.8,30.9,22.6,28.8,22.8 M32.6,10.5c-1,3-1.9,5.9-2.9,8.9c2.5,0.3,5.5,0.4,7.9-0.4c4.3-1.4,6.5-6.3,0.9-8.2
			C36.6,10.1,34.6,10.3,32.6,10.5 M17.8,4.4c-3.5,11.9-7,23.9-10.5,35.8c9.7,0.1,19.5,0.1,29.2,0c4.5,0,7.9,0.3,11.8-2.5
			c6-4.2,8.7-13,1.9-16.1c7.2-2.5,12.1-12.4,7.6-16.1c-1.9-1.5-4.2-1.3-6.5-1.3C40.1,4.3,29,4.3,17.8,4.4"/>
		<path id="Path_250" class="st1" d="M57.6,40.2c6.7,0.1,13.4,0.1,20.1,0.1c4.5,0,7.9,0.3,11.8-2.5c6-4.2,8.7-13,1.9-16.1
			c7.7-1.3,12.1-12.4,7.6-16.1c-1.9-1.6-4.2-1.3-6.5-1.3c-8.2,0-16.4,0.1-24.6,0.1c-0.5,1.9-1.1,3.9-1.6,5.8
			c5.1,0.1,10.3,0.2,15.4,0.3c6.9,0.1,7,8.2-0.6,8.3L66.6,19c-0.7,2.1-1.3,4.3-2,6.4c3.4,0,6.8,0,10.3,0.1c1.5-0.1,3,0.1,4.4,0.6
			c2.4,0.9,4,2.8,2.2,5.1c-2.3,3-6,2.9-9.7,2.9l-12.4,0.3L57.6,40.2z"/>
		<path id="Path_251" class="st2" d="M143.7,6.7l-5.3,19.6l-2.7,0c-0.4,0-0.8,0-1.2,0c-0.9,0-1.7,0-2.4,0c-0.9-0.1-1.7-0.7-1.9-1.5
			c-1.6-3.8-3.1-7.6-4.7-11.3l-3.5,12.8h-5.7l5.3-19.6l2.8,0c1.1,0,2.2,0,3.3,0c1,0.1,1.8,0.7,2.1,1.5c1.2,2.8,2.9,6.9,4.7,11.3
			L138,6.7L143.7,6.7z"/>
		<path id="Path_252" class="st3" d="M234,25.6L234,25.6l-0.4-0.6l-0.8,1.1l1.5-0.1L234,25.6z"/>
		<path id="Path_253" d="M232.4,7c-1-0.2-1.9-0.4-2.9-0.4c-2.8,0-5.7,0-8.5,0l-2,0c-0.3,0-0.6,0-0.9,0.1c-0.1,0-0.1,0-0.2,0
			l-1.4,0.1l-5.2,19.4h5.7l1.5-5.4h0.9c1.5,0,3,0,4.5,0c0.2,0.3,0.4,0.6,0.6,0.8c0.7,0.9,1.3,1.8,1.8,2.8c0.6,1.2,1.9,1.9,3.4,1.8
			c0.4,0,0.9,0,1.3-0.1l2-0.2l0.8-1.1l-3.2-4.8c1.5-0.5,2.9-1.3,4-2.4c1.1-1.1,1.9-2.3,2.3-3.7C237.6,10.6,236,7.9,232.4,7
			 M221.1,15.9h-0.2l-1.1,0l1.2-4.3c2.8,0,5.6,0,8.4,0.1c0.5,0,1.1,0.1,1.4,0.4c0.3,0.4,0.4,0.9,0.2,1.3c-0.5,2.3-2.1,2.3-2.7,2.4
			C225.9,16,223.6,15.9,221.1,15.9"/>
		<path id="Path_254" class="st2" d="M174.4,11.6l-0.7,2.5h11.8l-1.3,4.7h-11.8l-0.7,2.6h13.5l-1.3,4.9h-19.2l5.3-19.6h19.2
			l-1.3,4.9L174.4,11.6z"/>
		<path id="Path_255" class="st2" d="M194,17.6c-0.2,2.6,0.7,3.6,3.8,4c2.2,0.3,4.4,0,6.4-0.8c0,0,0,0,0,0c0.1-0.4,0.3-0.8,0.4-1.2
			h-5.6l1.3-4.6h11.1l-1,3.7c-0.4,1.5-0.8,2.8-1.2,4.3c-0.3,0.8-1,1.4-1.9,1.8c-2.8,1.3-5.9,2-9.1,2c-1.9,0-3.8-0.3-5.5-0.9
			c-3.7-1.3-5.2-4.3-4.3-8.5c0.4-1.8,1.2-3.5,2.2-5.1c2.2-3.3,5.7-5.2,10.3-5.6c3-0.4,6.1,0,8.9,1.1c2.6,1.1,2.5,1.9,1.7,4.2
			l-0.8,2.2l-2-1.1c-2.2-1.2-4.7-1.8-7.3-1.6c-1.9,0-3.6,0.6-5,1.8C194.9,14.3,194.1,15.9,194,17.6"/>
		<path id="Path_256" class="st2" d="M167.8,6.7l-1.3,4.8h-8l-4,14.8h-5.8l4-14.7h-8l1.3-4.9L167.8,6.7z"/>
		<path id="Path_257" class="st2" d="M117.3,6.4L112,26.3h-5.6l5.4-19.9H117.3z"/>
		<path id="Path_258" class="st2" d="M234,25.6L234,25.6L234,25.6L234,25.6z"/>
		<path id="Path_259" class="st3" d="M234,25.6L234,25.6l-0.4-0.6l-0.8,1.1l1.5-0.1L234,25.6z"/>
		<path id="Path_260" d="M258.6,24.3c0-0.1,0-0.1,0-0.2l-0.1-0.3c-1.1-5.3-2.1-10.5-3.2-15.7c-0.2-0.8-1-1.4-2-1.4
			c-1.3,0-2.5,0-3.8,0h-2.3L233.6,25l0.4,0.6l0,0l0.2,0.3l-1.5,0.1l-0.1,0.2h6.4l1.5-2.1c0.6-0.8,1.1-1.5,1.7-2.3c3.4,0,6.7,0,9.8,0
			c0.2,1.1,0.4,2,0.6,2.8c0.3,0.8,1,1.4,1.9,1.5c0.3,0.1,0.6,0.1,1,0.1h3.4L258.6,24.3z M250.1,11.6c0.3,1.6,0.6,3.2,0.9,4.9
			l0.1,0.3c0,0.1,0,0.1,0,0.2h-5.4l2.8-3.8c0.1-0.1,0.1-0.2,0.2-0.2l0.1-0.1c0.3-0.3,0.5-0.6,0.7-1c0-0.1,0.1-0.2,0.2-0.3
			C249.8,11.6,249.9,11.6,250.1,11.6"/>
		<path id="Path_261" d="M107.3,31.2h1.2l-1.8,8.5h-1.2L107.3,31.2z M108.7,35.6l0.1-0.7l4.6,4.8h-1.6l-4.2-4.4l5.3-4.1h1.6
			L108.7,35.6z"/>
		<path id="Path_262" d="M132,31.2h1.2l-1.8,8.5h-1.2L132,31.2z"/>
		<path id="Path_263" d="M150.1,31.2h7.7l-0.2,1h-7.7L150.1,31.2z M153.2,32.1h1.2l-1.6,7.6h-1.2L153.2,32.1z"/>
		<path id="Path_264" d="M180.9,36.9c-0.2,0.6-0.6,1.1-1,1.6c-0.5,0.4-1,0.8-1.6,1c-0.6,0.2-1.3,0.4-2,0.4c-0.6,0-1.2-0.1-1.8-0.3
			c-0.5-0.2-1-0.5-1.3-0.9c-0.4-0.4-0.6-0.9-0.7-1.4c-0.1-0.6-0.1-1.2,0-1.8c0.1-0.6,0.4-1.2,0.7-1.8c0.3-0.5,0.8-1,1.3-1.4
			c0.5-0.4,1.1-0.7,1.7-0.9c0.6-0.2,1.3-0.3,1.9-0.3c0.6,0,1.3,0.1,1.9,0.4c0.5,0.2,0.9,0.6,1.2,1c0.3,0.5,0.4,1,0.4,1.6h-1.1
			c0-0.4-0.2-0.8-0.4-1.1c-0.2-0.3-0.5-0.5-0.9-0.7c-0.4-0.2-0.8-0.2-1.3-0.2c-0.6,0-1.2,0.1-1.8,0.4c-0.6,0.3-1.1,0.7-1.5,1.2
			c-0.5,0.6-0.8,1.2-0.9,1.9c-0.2,0.6-0.1,1.3,0.1,1.9c0.2,0.5,0.6,0.9,1,1.2c0.5,0.3,1,0.4,1.6,0.4c0.5,0,0.9-0.1,1.3-0.2
			c0.4-0.2,0.8-0.4,1.2-0.7c0.4-0.3,0.7-0.7,0.9-1.1L180.9,36.9z"/>
		<path id="Path_265" d="M199.2,31.2h1.2l-1.8,8.5h-1.2L199.2,31.2z M199.5,35h6.1l-0.2,1h-6.1L199.5,35z M206.3,31.2h1.2l-1.8,8.5
			h-1.2L206.3,31.2z"/>
		<path id="Path_266" d="M225.3,36l-0.6,2.8h5.7l-0.2,1h-6.8l1.8-8.5h6.8l-0.2,1h-5.6l-0.6,2.8h4.6l-0.2,1H225.3z"/>
		<path id="Path_267" d="M255.2,38.5l-0.3,0.1l1.5-7.4h1.2l-1.8,8.5h-1.2l-4.8-7.2l0.3-0.1l-1.5,7.3h-1.2l1.8-8.5h1.2L255.2,38.5z"
			/>
	</g>
</g>
</svg>
