<?xml version="1.0" encoding="utf-8"?>
<!-- Generator: Adobe Illustrator 27.1.0, SVG Export Plug-In . SVG Version: 6.00 Build 0)  -->
<svg version="1.1" id="Layer_1" xmlns="http://www.w3.org/2000/svg" xmlns:xlink="http://www.w3.org/1999/xlink" x="0px" y="0px"
	 viewBox="0 0 286.7 37.7" style="enable-background:new 0 0 286.7 37.7;" xml:space="preserve">
<style type="text/css">
	.st0{clip-path:url(#SVGID_00000085942048644499955960000000018947202123928468_);}
	.st1{fill-rule:evenodd;clip-rule:evenodd;fill:#EB1C24;}
</style>
<g>
	<defs>
		<rect id="SVGID_1_" x="14.2" y="3.3" width="260.4" height="33.4"/>
	</defs>
	<clipPath id="SVGID_00000166674308968294576060000012250045528694408065_">
		<use xlink:href="#SVGID_1_"  style="overflow:visible;"/>
	</clipPath>
	<g id="Group_21511" style="clip-path:url(#SVGID_00000166674308968294576060000012250045528694408065_);">
		<path id="Path_7253" d="M153.3,33c-2.9,2.3-7.3,3.7-12.9,3.7c-9.2,0-13.8-4.8-12.2-12c1.7-7.1,8.5-12,17.8-12
			c5.6,0,8.8,1.3,11.1,3.7l2.8-12h5.5l-7.4,31.8h-5.4L153.3,33z M142.7,32.3c7.1,0,11.5-3.2,12.5-7.6c1-4.4-1.9-7.6-9-7.6
			c-7.3,0-11.5,3.3-12.5,7.6C132.7,29,135.3,32.3,142.7,32.3"/>
		<path id="Path_7254" d="M170.5,4.3h5.5l-1.2,5.4h-5.6L170.5,4.3z M168.4,13.2h5.5l-5.3,23h-5.5L168.4,13.2z"/>
		<path id="Path_7255" d="M180.4,17.9h-3.5l1.1-4.7h3.5l0.5-2c1.1-4.5,4.2-6.9,8.6-6.9h7.3L196.8,9H191c-2.1,0-3.2,1-3.6,2.7
			l-0.3,1.5h8.8l-1.1,4.7H186l-4.2,18.2h-5.5L180.4,17.9z"/>
		<path id="Path_7256" d="M201.9,4.3h5.5l-1.2,5.4h-5.5L201.9,4.3z M199.8,13.2h5.5l-5.3,23h-5.5L199.8,13.2z"/>
		<path id="Path_7257" d="M238.4,27.1c-1.3,4.5-6.7,9.6-18.2,9.6c-9.8,0-14.7-4.6-13-12c1.6-7,8.6-12,18.6-12c11.5,0,14,5,13.6,9
			h-5.5c-0.1-1.5-1-4.6-9-4.6c-7,0-11.1,3.6-12.1,7.6c-0.9,4,1.3,7.6,8.5,7.6c8.5,0,11.1-3.7,11.6-5.2L238.4,27.1z"/>
		<path id="Path_7258" d="M273.2,28.2c-1.2,4.6-7.1,8.5-17.6,8.5c-9.7,0-14.7-4.4-13-11.9c1.8-7.7,8.8-12.1,18.6-12.1
			c9.7,0,14.9,4.3,13.2,11.6l-0.4,1.9h-26.1c-0.6,2.9,1.2,6.1,8.7,6.1c7.8,0,10.6-2.5,11.1-4.1L273.2,28.2z M269.1,22.6
			c0.4-2.3-1.4-5.5-9-5.5c-7.3,0-10.7,3.2-11.4,5.5H269.1z"/>
		<path id="Path_7259" class="st1" d="M31.8,20.1l-3.2,10.3c4.2,0.7,7.6,0.3,9.9-3.5c1.5-2.4,1.8-5.4-1.4-6.3
			C35.3,20.1,33.6,20,31.8,20.1 M34.9,9c-0.8,2.7-1.6,5.4-2.4,8.1c2.2,0.4,4.4,0.2,6.5-0.4c3.5-1.3,5.3-5.7,0.8-7.4
			C38.2,8.8,36.5,8.7,34.9,9 M22.8,3.5c-2.9,10.7-5.7,21.6-8.6,32.3c8,0.1,15.9,0.1,23.9,0c3.6,0,6.4,0.3,9.6-2.2
			c4.9-3.8,7.1-11.7,1.6-14.6c5.9-2.3,9.9-11.2,6.2-14.6c-1.5-1.4-3.4-1.2-5.3-1.1C41.1,3.4,32,3.4,22.8,3.5"/>
		<path id="Path_7260" class="st1" d="M55.3,35.8c5.5,0.1,10.9,0.1,16.4,0.1c3.6,0,6.4,0.3,9.6-2.2c4.9-3.8,7.1-11.7,1.6-14.6
			c6.3-1.2,9.9-11.2,6.2-14.6c-1.5-1.4-3.4-1.2-5.3-1.2L63.7,3.5c-0.4,1.8-0.9,3.5-1.3,5.3L75,9.1c5.7,0.1,5.7,7.5-0.5,7.5
			l-11.8,0.1c-0.5,1.9-1.1,3.8-1.6,5.8c2.8,0,5.6,0,8.4,0c1.2,0,2.4,0.1,3.6,0.5c2,0.8,3.2,2.6,1.8,4.6c-1.9,2.7-4.9,2.6-7.9,2.6
			l-10.2,0.2L55.3,35.8z"/>
		<path id="Path_7261" d="M97.4,30.9l2-8.5H116l1.1-4.7h-16.6l1.9-8.1h32.4l5.1-5.3H97.7l-7.4,31.8h38.1l-3-5.2L97.4,30.9z"/>
	</g>
</g>
</svg>
