<svg xmlns="http://www.w3.org/2000/svg" width="90" height="90.06" viewBox="0 0 90 90.06">
  <path id="Target" d="M74.23,52.5A24.44,24.44,0,0,1,52.55,74.29a.84.84,0,0,0-.85.85V93.33a1.7,1.7,0,0,1-3.4,0v-6.6a.92.92,0,0,0-.85-.85,35.84,35.84,0,0,1-32-27.53,1.7,1.7,0,1,1,3.29-.85,32.32,32.32,0,0,0,28.6,24.87c.22.11.43,0,.64-.21a.64.64,0,0,0,.32-.64V75.14a.84.84,0,0,0-.85-.85,24.74,24.74,0,0,1-14.66-7,24.48,24.48,0,0,1-7-14.78.89.89,0,0,0-.85-.75H6.75a1.75,1.75,0,0,1,0-3.5h6.91a.9.9,0,0,0,.85-.75A36.23,36.23,0,0,1,41.07,14.75a1.76,1.76,0,0,1,.85,3.41A32.44,32.44,0,0,0,18,47.29a.82.82,0,0,0,.85,1H24.9a.89.89,0,0,0,.85-.75,24.44,24.44,0,0,1,21.7-21.83.84.84,0,0,0,.85-.85V6.67a1.7,1.7,0,0,1,3.4,0V27.3a1.73,1.73,0,0,1-1.81,1.81c-18.49,0-27.73,22.64-14.66,35.72S70.61,68.55,70.93,50a1.68,1.68,0,0,1,1.7-1.7H93.25a1.75,1.75,0,1,1,0,3.5h-6.8a.82.82,0,0,0-.85.75A36.14,36.14,0,0,1,58.29,85a1.741,1.741,0,0,1-.75-3.4A32.5,32.5,0,0,0,82.09,52.71a.82.82,0,0,0-.85-1H75.08a.89.89,0,0,0-.85.75ZM88,24.22,75.71,36.44a1.68,1.68,0,0,1-1.16.54H66.36a1.43,1.43,0,0,0-.63.21L51.17,51.86a1.73,1.73,0,0,1-2.45-2.44L63.28,34.74a.58.58,0,0,0,.32-.53V26a1.75,1.75,0,0,1,.53-1.27L76.35,12.52a1.73,1.73,0,0,1,3,1.17v6.7a.91.91,0,0,0,.85.85h6.59a1.75,1.75,0,0,1,1.27,3Zm-14,9,7.12-7.12a.86.86,0,0,0-.53-1.49h-3a1.77,1.77,0,0,1-1.81-1.7V20a.88.88,0,0,0-1.49-.63l-7,7.12a.94.94,0,0,0-.32.64v5.53a.84.84,0,0,0,.85.85h5.63c.22,0,.43,0,.53-.22Zm-9.56,16.8A14.45,14.45,0,1,1,50,35.59,1.71,1.71,0,0,1,50,39a11,11,0,0,0,0,22c6.38,0,10.63-4.78,10.94-11a1.76,1.76,0,1,1,3.51.1Z" transform="translate(-5 -4.97)" fill="#fff"/>
</svg>
