<svg xmlns="http://www.w3.org/2000/svg" width="95.701" height="73.584" viewBox="0 0 95.701 73.584">
  <path id="Path_211" data-name="Path 211" d="M92.487,98.575c0-.007-.006-.015-.009-.022L81.139,75.045a16.27,16.27,0,0,0-7.291-7.412l-1.07-2.219a10.756,10.756,0,0,0-20.443,4.673v4.13a16.108,16.108,0,0,0-1.878,5.554h-5.21a16.108,16.108,0,0,0-1.878-5.554v-4.13a10.756,10.756,0,0,0-20.443-4.673l-1.07,2.219a16.272,16.272,0,0,0-7.291,7.412L12.6,79.116a1.4,1.4,0,1,0,2.518,1.215l1.964-4.072A13.435,13.435,0,0,1,42.617,82.1v17.2a22.738,22.738,0,0,0-5.209-6.388,1.4,1.4,0,0,0-1.811,2.13,19.823,19.823,0,1,1-4.7-2.982,1.4,1.4,0,0,0,1.151-2.548A22.7,22.7,0,0,0,9.666,91.63l2.856-5.921A1.4,1.4,0,1,0,10,84.5L3.223,98.553c0,.007-.006.015-.009.022A22.7,22.7,0,1,0,45.407,110.68h4.888A22.706,22.706,0,1,0,92.487,98.575ZM78.621,76.259,86.035,91.63A22.684,22.684,0,0,0,53.084,99.3V82.1a13.435,13.435,0,0,1,25.536-5.837ZM50.288,107.884H45.413V82.566h4.875Zm12.8-45.758a8,8,0,0,1,6.978,4.138A16.144,16.144,0,0,0,55.13,70.544v-.458a7.969,7.969,0,0,1,7.96-7.96ZM29.182,65.865a16.032,16.032,0,0,0-3.548.4,7.957,7.957,0,0,1,14.937,3.821v.458A16.178,16.178,0,0,0,29.182,65.865Zm43.813,64.254a19.911,19.911,0,1,1,19.911-19.911A19.933,19.933,0,0,1,72.995,130.119Z" transform="translate(0 -59.331)" fill="#fff"/>
</svg>
